# xmcd CD database file
#
# Track frame offsets:
#	150
#	14121
#	47411
#	76318
#	89636
#	115375
#	132627
#	166158
#	191118
#	208080
#	218171
#	240468
#	253173
#	273676
#
# Disc length: 3848 seconds
#
# Revision: 3
# Processed by: cddbd v1.5.2PL0 Copyright (c) Steve Scherf et al.
# Submitted via: CDex 1.51
#
DISCID=d50f060e
DTITLE=Javier Girotto and Luciano Biondini - EL CACEROLAZO
DYEAR=2001
DGENRE=Jazz
TTITLE0=MORRONGA LA MILONGA
TTITLE1=BRINGI
TTITLE2=AIRES TANGO
TTITLE3=TOM Y JERRY°(vs) WILLY IL COYOTE
TTITLE4=GUARANI'
TTITLE5=PA LA VIEJA
TTITLE6=PRENDERE O LASCIARE
TTITLE7=A DON ATAHUALPA
TTITLE8=EL CACEROLAZO
TTITLE9=PATO DONALD
TTITLE10=TANGOMANIA
TTITLE11=PACHA MAMA
TTITLE12=EZEIZA
TTITLE13=EL CORRALITO
EXTD=YEAR: 2001
EXTT0=
EXTT1=
EXTT2=
EXTT3=
EXTT4=
EXTT5=
EXTT6=
EXTT7=
EXTT8=
EXTT9=
EXTT10=
EXTT11=
EXTT12=
EXTT13=
PLAYORDER=
